<?xml version="1.0" encoding="UTF-8" standalone="no"?>
<!DOCTYPE svg PUBLIC "-//W3C//DTD SVG 1.1//EN"
 "http://www.w3.org/Graphics/SVG/1.1/DTD/svg11.dtd">
<!-- Generated by graphviz version 13.1.2 (0)
 -->
<!-- Pages: 1 -->
<svg width="294pt" height="178pt"
 viewBox="0.00 0.00 294.00 178.00" xmlns="http://www.w3.org/2000/svg" xmlns:xlink="http://www.w3.org/1999/xlink">
<g id="graph0" class="graph" transform="scale(1 1) rotate(0) translate(4 174)">
<polygon fill="white" stroke="none" points="-4,4 -4,-174 290,-174 290,4 -4,4"/>
<g id="clust1" class="cluster">
<title>cluster_N</title>
<polygon fill="none" stroke="black" points="31,-8 31,-84.5 101,-84.5 101,-8 31,-8"/>
<text xml:space="preserve" text-anchor="middle" x="88.12" y="-15.2" font-family="Times New Roman,serif" font-size="14.00">N</text>
</g>
<!-- mu -->
<g id="node1" class="node">
<title>mu</title>
<ellipse fill="white" stroke="black" cx="27" cy="-141.25" rx="27" ry="18"/>
<text xml:space="preserve" text-anchor="middle" x="27" y="-136.2" font-family="Times New Roman,serif" font-size="14.00">mu</text>
</g>
<!-- obs -->
<g id="node3" class="node">
<title>obs</title>
<ellipse fill="grey" stroke="black" cx="66" cy="-58.5" rx="27" ry="18"/>
<text xml:space="preserve" text-anchor="middle" x="66" y="-53.45" font-family="Times New Roman,serif" font-size="14.00">obs</text>
</g>
<!-- mu&#45;&gt;obs -->
<g id="edge1" class="edge">
<title>mu&#45;&gt;obs</title>
<path fill="none" stroke="black" d="M34.89,-123.91C40.09,-113.14 47.02,-98.8 53.02,-86.38"/>
<polygon fill="black" stroke="black" points="56.13,-87.98 57.33,-77.46 49.83,-84.94 56.13,-87.98"/>
</g>
<!-- sigma -->
<g id="node2" class="node">
<title>sigma</title>
<ellipse fill="white" stroke="black" cx="105" cy="-141.25" rx="33.44" ry="18"/>
<text xml:space="preserve" text-anchor="middle" x="105" y="-136.2" font-family="Times New Roman,serif" font-size="14.00">sigma</text>
</g>
<!-- sigma&#45;&gt;obs -->
<g id="edge2" class="edge">
<title>sigma&#45;&gt;obs</title>
<path fill="none" stroke="black" d="M96.92,-123.52C91.71,-112.73 84.82,-98.46 78.86,-86.13"/>
<polygon fill="black" stroke="black" points="82.1,-84.78 74.6,-77.3 75.79,-87.82 82.1,-84.78"/>
</g>
<!-- distribution_description_node -->
<g id="node4" class="node">
<title>distribution_description_node</title>
<text xml:space="preserve" text-anchor="start" x="164" y="-152.7" font-family="Times New Roman,serif" font-size="14.00">mu ~ Normal</text>
<text xml:space="preserve" text-anchor="start" x="164" y="-136.2" font-family="Times New Roman,serif" font-size="14.00">sigma ~ HalfNormal</text>
<text xml:space="preserve" text-anchor="start" x="164" y="-119.7" font-family="Times New Roman,serif" font-size="14.00">obs ~ Normal</text>
</g>
</g>
</svg>
