<?xml version="1.0" encoding="UTF-8" standalone="no"?>
<!DOCTYPE svg PUBLIC "-//W3C//DTD SVG 1.1//EN"
 "http://www.w3.org/Graphics/SVG/1.1/DTD/svg11.dtd">
<!-- Generated by graphviz version 13.1.2 (0)
 -->
<!-- Pages: 1 -->
<svg width="268pt" height="300pt"
 viewBox="0.00 0.00 268.00 300.00" xmlns="http://www.w3.org/2000/svg" xmlns:xlink="http://www.w3.org/1999/xlink">
<g id="graph0" class="graph" transform="scale(1 1) rotate(0) translate(4 295.5)">
<polygon fill="white" stroke="none" points="-4,4 -4,-295.5 263.5,-295.5 263.5,4 -4,4"/>
<g id="clust1" class="cluster">
<title>cluster_N</title>
<polygon fill="none" stroke="black" points="28,-8 28,-84.5 170,-84.5 170,-8 28,-8"/>
<text xml:space="preserve" text-anchor="middle" x="157.12" y="-15.2" font-family="Times New Roman,serif" font-size="14.00">N</text>
</g>
<!-- β0 -->
<g id="node1" class="node">
<title>β0</title>
<ellipse fill="white" stroke="black" cx="27" cy="-238" rx="27" ry="18"/>
<text xml:space="preserve" text-anchor="middle" x="27" y="-232.95" font-family="Times New Roman,serif" font-size="14.00">β0</text>
</g>
<!-- μ -->
<g id="node3" class="node">
<title>μ</title>
<ellipse fill="white" stroke="black" stroke-dasharray="5,2" cx="63" cy="-130.5" rx="27" ry="18"/>
<text xml:space="preserve" text-anchor="middle" x="63" y="-125.45" font-family="Times New Roman,serif" font-size="14.00">μ</text>
</g>
<!-- β0&#45;&gt;μ -->
<g id="edge2" class="edge">
<title>β0&#45;&gt;μ</title>
<path fill="none" stroke="black" d="M32.78,-220.05C38.37,-203.67 46.94,-178.57 53.52,-159.27"/>
<polygon fill="black" stroke="black" points="56.82,-160.44 56.74,-149.84 50.2,-158.17 56.82,-160.44"/>
</g>
<!-- β1 -->
<g id="node2" class="node">
<title>β1</title>
<ellipse fill="white" stroke="black" cx="99" cy="-238" rx="27" ry="18"/>
<text xml:space="preserve" text-anchor="middle" x="99" y="-232.95" font-family="Times New Roman,serif" font-size="14.00">β1</text>
</g>
<!-- β1&#45;&gt;μ -->
<g id="edge3" class="edge">
<title>β1&#45;&gt;μ</title>
<path fill="none" stroke="black" d="M93.22,-220.05C87.63,-203.67 79.06,-178.57 72.48,-159.27"/>
<polygon fill="black" stroke="black" points="75.8,-158.17 69.26,-149.84 69.18,-160.44 75.8,-158.17"/>
</g>
<!-- Y -->
<g id="node6" class="node">
<title>Y</title>
<ellipse fill="grey" stroke="black" cx="135" cy="-58.5" rx="27" ry="18"/>
<text xml:space="preserve" text-anchor="middle" x="135" y="-53.45" font-family="Times New Roman,serif" font-size="14.00">Y</text>
</g>
<!-- μ&#45;&gt;Y -->
<g id="edge4" class="edge">
<title>μ&#45;&gt;Y</title>
<path fill="none" stroke="black" d="M77.92,-115C87.77,-105.42 100.86,-92.69 112.03,-81.84"/>
<polygon fill="black" stroke="black" points="114.29,-84.52 119.02,-75.04 109.41,-79.5 114.29,-84.52"/>
</g>
<!-- σ -->
<g id="node4" class="node">
<title>σ</title>
<ellipse fill="white" stroke="black" cx="135" cy="-130.5" rx="27" ry="18"/>
<text xml:space="preserve" text-anchor="middle" x="135" y="-125.45" font-family="Times New Roman,serif" font-size="14.00">σ</text>
</g>
<!-- σ&#45;&gt;Y -->
<g id="edge5" class="edge">
<title>σ&#45;&gt;Y</title>
<path fill="none" stroke="black" d="M135,-112.2C135,-104.91 135,-96.23 135,-88.04"/>
<polygon fill="black" stroke="black" points="138.5,-88.12 135,-78.12 131.5,-88.12 138.5,-88.12"/>
</g>
<!-- X -->
<g id="node5" class="node">
<title>X</title>
<ellipse fill="white" stroke="black" stroke-dasharray="5,2" cx="63" cy="-58.5" rx="27" ry="18"/>
<text xml:space="preserve" text-anchor="middle" x="63" y="-53.45" font-family="Times New Roman,serif" font-size="14.00">X</text>
</g>
<!-- X&#45;&gt;μ -->
<g id="edge1" class="edge">
<title>X&#45;&gt;μ</title>
<path fill="none" stroke="black" d="M63,-76.6C63,-83.87 63,-92.54 63,-100.74"/>
<polygon fill="black" stroke="black" points="59.5,-100.68 63,-110.68 66.5,-100.68 59.5,-100.68"/>
</g>
<!-- distribution_description_node -->
<g id="node7" class="node">
<title>distribution_description_node</title>
<text xml:space="preserve" text-anchor="start" x="152.5" y="-274.2" font-family="Times New Roman,serif" font-size="14.00">X ~ Deterministic</text>
<text xml:space="preserve" text-anchor="start" x="152.5" y="-257.7" font-family="Times New Roman,serif" font-size="14.00">β0 ~ Normal</text>
<text xml:space="preserve" text-anchor="start" x="152.5" y="-241.2" font-family="Times New Roman,serif" font-size="14.00">β1 ~ Normal</text>
<text xml:space="preserve" text-anchor="start" x="152.5" y="-224.7" font-family="Times New Roman,serif" font-size="14.00">μ ~ Deterministic</text>
<text xml:space="preserve" text-anchor="start" x="152.5" y="-208.2" font-family="Times New Roman,serif" font-size="14.00">σ ~ HalfNormal</text>
<text xml:space="preserve" text-anchor="start" x="152.5" y="-191.7" font-family="Times New Roman,serif" font-size="14.00">Y ~ Normal</text>
</g>
</g>
</svg>
