<?xml version="1.0" encoding="UTF-8" standalone="no"?>
<!DOCTYPE svg PUBLIC "-//W3C//DTD SVG 1.1//EN"
 "http://www.w3.org/Graphics/SVG/1.1/DTD/svg11.dtd">
<!-- Generated by graphviz version 13.1.2 (0)
 -->
<!-- Pages: 1 -->
<svg width="706pt" height="330pt"
 viewBox="0.00 0.00 706.00 330.00" xmlns="http://www.w3.org/2000/svg" xmlns:xlink="http://www.w3.org/1999/xlink">
<g id="graph0" class="graph" transform="scale(1 1) rotate(0) translate(4 325.5)">
<polygon fill="white" stroke="none" points="-4,4 -4,-325.5 701.88,-325.5 701.88,4 -4,4"/>
<g id="clust1" class="cluster">
<title>cluster_N</title>
<polygon fill="none" stroke="black" points="280,-44 280,-120.5 566,-120.5 566,-44 280,-44"/>
<text xml:space="preserve" text-anchor="middle" x="553.12" y="-51.2" font-family="Times New Roman,serif" font-size="14.00">N</text>
</g>
<!-- β0 -->
<g id="node1" class="node">
<title>β0</title>
<ellipse fill="white" stroke="black" cx="27" cy="-94.5" rx="27" ry="18"/>
<text xml:space="preserve" text-anchor="middle" x="27" y="-89.45" font-family="Times New Roman,serif" font-size="14.00">β0</text>
</g>
<!-- μ -->
<g id="node5" class="node">
<title>μ</title>
<ellipse fill="white" stroke="black" stroke-dasharray="5,2" cx="279" cy="-18" rx="27" ry="18"/>
<text xml:space="preserve" text-anchor="middle" x="279" y="-12.95" font-family="Times New Roman,serif" font-size="14.00">μ</text>
</g>
<!-- β0&#45;&gt;μ -->
<g id="edge4" class="edge">
<title>β0&#45;&gt;μ</title>
<path fill="none" stroke="black" d="M34.56,-76.84C40.59,-65.6 50.15,-51.5 63,-44 92.24,-26.92 186.61,-21.5 240.44,-19.79"/>
<polygon fill="black" stroke="black" points="240.5,-23.29 250.4,-19.5 240.3,-16.29 240.5,-23.29"/>
</g>
<!-- β1 -->
<g id="node2" class="node">
<title>β1</title>
<ellipse fill="white" stroke="black" cx="99" cy="-94.5" rx="27" ry="18"/>
<text xml:space="preserve" text-anchor="middle" x="99" y="-89.45" font-family="Times New Roman,serif" font-size="14.00">β1</text>
</g>
<!-- β1&#45;&gt;μ -->
<g id="edge5" class="edge">
<title>β1&#45;&gt;μ</title>
<path fill="none" stroke="black" d="M106.7,-77.06C112.79,-65.93 122.37,-51.86 135,-44 152.25,-33.26 204.28,-26.17 240.82,-22.37"/>
<polygon fill="black" stroke="black" points="240.97,-25.87 250.57,-21.4 240.27,-18.91 240.97,-25.87"/>
</g>
<!-- β2 -->
<g id="node3" class="node">
<title>β2</title>
<ellipse fill="white" stroke="black" cx="171" cy="-94.5" rx="27" ry="18"/>
<text xml:space="preserve" text-anchor="middle" x="171" y="-89.45" font-family="Times New Roman,serif" font-size="14.00">β2</text>
</g>
<!-- β2&#45;&gt;μ -->
<g id="edge6" class="edge">
<title>β2&#45;&gt;μ</title>
<path fill="none" stroke="black" d="M179.39,-77.21C185.68,-66.44 195.22,-52.73 207,-44 217.42,-36.28 230.41,-30.8 242.48,-26.99"/>
<polygon fill="black" stroke="black" points="243.09,-30.45 251.75,-24.35 241.17,-23.72 243.09,-30.45"/>
</g>
<!-- β3 -->
<g id="node4" class="node">
<title>β3</title>
<ellipse fill="white" stroke="black" cx="243" cy="-94.5" rx="27" ry="18"/>
<text xml:space="preserve" text-anchor="middle" x="243" y="-89.45" font-family="Times New Roman,serif" font-size="14.00">β3</text>
</g>
<!-- β3&#45;&gt;μ -->
<g id="edge7" class="edge">
<title>β3&#45;&gt;μ</title>
<path fill="none" stroke="black" d="M250.99,-76.97C255.42,-67.8 261.03,-56.19 266.07,-45.77"/>
<polygon fill="black" stroke="black" points="269.17,-47.38 270.37,-36.85 262.87,-44.33 269.17,-47.38"/>
</g>
<!-- Y -->
<g id="node10" class="node">
<title>Y</title>
<ellipse fill="grey" stroke="black" cx="531" cy="-94.5" rx="27" ry="18"/>
<text xml:space="preserve" text-anchor="middle" x="531" y="-89.45" font-family="Times New Roman,serif" font-size="14.00">Y</text>
</g>
<!-- μ&#45;&gt;Y -->
<g id="edge8" class="edge">
<title>μ&#45;&gt;Y</title>
<path fill="none" stroke="black" d="M306.09,-19.46C356.75,-20.75 463.54,-25.63 495,-44 504.33,-49.45 511.93,-58.39 517.7,-67.17"/>
<polygon fill="black" stroke="black" points="514.55,-68.72 522.66,-75.54 520.57,-65.15 514.55,-68.72"/>
</g>
<!-- σ -->
<g id="node6" class="node">
<title>σ</title>
<ellipse fill="white" stroke="black" cx="531" cy="-235" rx="27" ry="18"/>
<text xml:space="preserve" text-anchor="middle" x="531" y="-229.95" font-family="Times New Roman,serif" font-size="14.00">σ</text>
</g>
<!-- σ&#45;&gt;Y -->
<g id="edge9" class="edge">
<title>σ&#45;&gt;Y</title>
<path fill="none" stroke="black" d="M531,-216.74C531,-193.62 531,-152.28 531,-124.38"/>
<polygon fill="black" stroke="black" points="534.5,-124.49 531,-114.49 527.5,-124.49 534.5,-124.49"/>
</g>
<!-- X1 -->
<g id="node7" class="node">
<title>X1</title>
<ellipse fill="white" stroke="black" stroke-dasharray="5,2" cx="315" cy="-94.5" rx="27" ry="18"/>
<text xml:space="preserve" text-anchor="middle" x="315" y="-89.45" font-family="Times New Roman,serif" font-size="14.00">X1</text>
</g>
<!-- X1&#45;&gt;μ -->
<g id="edge1" class="edge">
<title>X1&#45;&gt;μ</title>
<path fill="none" stroke="black" d="M307.01,-76.97C302.58,-67.8 296.97,-56.19 291.93,-45.77"/>
<polygon fill="black" stroke="black" points="295.13,-44.33 287.63,-36.85 288.83,-47.38 295.13,-44.33"/>
</g>
<!-- X2 -->
<g id="node8" class="node">
<title>X2</title>
<ellipse fill="white" stroke="black" stroke-dasharray="5,2" cx="387" cy="-94.5" rx="27" ry="18"/>
<text xml:space="preserve" text-anchor="middle" x="387" y="-89.45" font-family="Times New Roman,serif" font-size="14.00">X2</text>
</g>
<!-- X2&#45;&gt;μ -->
<g id="edge2" class="edge">
<title>X2&#45;&gt;μ</title>
<path fill="none" stroke="black" d="M378.61,-77.21C372.32,-66.44 362.78,-52.73 351,-44 340.58,-36.28 327.59,-30.8 315.52,-26.99"/>
<polygon fill="black" stroke="black" points="316.83,-23.72 306.25,-24.35 314.91,-30.45 316.83,-23.72"/>
</g>
<!-- X3 -->
<g id="node9" class="node">
<title>X3</title>
<ellipse fill="white" stroke="black" stroke-dasharray="5,2" cx="459" cy="-94.5" rx="27" ry="18"/>
<text xml:space="preserve" text-anchor="middle" x="459" y="-89.45" font-family="Times New Roman,serif" font-size="14.00">X3</text>
</g>
<!-- X3&#45;&gt;μ -->
<g id="edge3" class="edge">
<title>X3&#45;&gt;μ</title>
<path fill="none" stroke="black" d="M451.3,-77.06C445.21,-65.93 435.63,-51.86 423,-44 405.75,-33.26 353.72,-26.17 317.18,-22.37"/>
<polygon fill="black" stroke="black" points="317.73,-18.91 307.43,-21.4 317.03,-25.87 317.73,-18.91"/>
</g>
<!-- distribution_description_node -->
<g id="node11" class="node">
<title>distribution_description_node</title>
<text xml:space="preserve" text-anchor="start" x="584.12" y="-304.2" font-family="Times New Roman,serif" font-size="14.00">X1 ~ Deterministic</text>
<text xml:space="preserve" text-anchor="start" x="584.12" y="-287.7" font-family="Times New Roman,serif" font-size="14.00">X2 ~ Deterministic</text>
<text xml:space="preserve" text-anchor="start" x="584.12" y="-271.2" font-family="Times New Roman,serif" font-size="14.00">X3 ~ Deterministic</text>
<text xml:space="preserve" text-anchor="start" x="584.12" y="-254.7" font-family="Times New Roman,serif" font-size="14.00">β0 ~ Normal</text>
<text xml:space="preserve" text-anchor="start" x="584.12" y="-238.2" font-family="Times New Roman,serif" font-size="14.00">β1 ~ Normal</text>
<text xml:space="preserve" text-anchor="start" x="584.12" y="-221.7" font-family="Times New Roman,serif" font-size="14.00">β2 ~ Normal</text>
<text xml:space="preserve" text-anchor="start" x="584.12" y="-205.2" font-family="Times New Roman,serif" font-size="14.00">β3 ~ Normal</text>
<text xml:space="preserve" text-anchor="start" x="584.12" y="-188.7" font-family="Times New Roman,serif" font-size="14.00">μ ~ Deterministic</text>
<text xml:space="preserve" text-anchor="start" x="584.12" y="-172.2" font-family="Times New Roman,serif" font-size="14.00">σ ~ HalfNormal</text>
<text xml:space="preserve" text-anchor="start" x="584.12" y="-155.7" font-family="Times New Roman,serif" font-size="14.00">Y ~ Normal</text>
</g>
</g>
</svg>
