<?xml version="1.0" encoding="UTF-8" standalone="no"?>
<!DOCTYPE svg PUBLIC "-//W3C//DTD SVG 1.1//EN"
 "http://www.w3.org/Graphics/SVG/1.1/DTD/svg11.dtd">
<!-- Generated by graphviz version 13.1.2 (0)
 -->
<!-- Pages: 1 -->
<svg width="634pt" height="366pt"
 viewBox="0.00 0.00 634.00 366.00" xmlns="http://www.w3.org/2000/svg" xmlns:xlink="http://www.w3.org/1999/xlink">
<g id="graph0" class="graph" transform="scale(1 1) rotate(0) translate(4 361.5)">
<polygon fill="white" stroke="none" points="-4,4 -4,-361.5 629.88,-361.5 629.88,4 -4,4"/>
<g id="clust1" class="cluster">
<title>cluster_N</title>
<polygon fill="none" stroke="black" points="64,-8 64,-297 278,-297 278,-8 64,-8"/>
<text xml:space="preserve" text-anchor="middle" x="265.12" y="-15.2" font-family="Times New Roman,serif" font-size="14.00">N</text>
</g>
<!-- β0 -->
<g id="node1" class="node">
<title>β0</title>
<ellipse fill="white" stroke="black" cx="27" cy="-271" rx="27" ry="18"/>
<text xml:space="preserve" text-anchor="middle" x="27" y="-265.95" font-family="Times New Roman,serif" font-size="14.00">β0</text>
</g>
<!-- μ -->
<g id="node9" class="node">
<title>μ</title>
<ellipse fill="white" stroke="black" stroke-dasharray="5,2" cx="243" cy="-130.5" rx="27" ry="18"/>
<text xml:space="preserve" text-anchor="middle" x="243" y="-125.45" font-family="Times New Roman,serif" font-size="14.00">μ</text>
</g>
<!-- β0&#45;&gt;μ -->
<g id="edge4" class="edge">
<title>β0&#45;&gt;μ</title>
<path fill="none" stroke="black" d="M29.09,-252.7C32.34,-233.37 40.42,-202.46 60,-184.5 99.94,-147.87 163.7,-136.42 204.45,-132.92"/>
<polygon fill="black" stroke="black" points="204.56,-136.42 214.28,-132.21 204.06,-129.44 204.56,-136.42"/>
</g>
<!-- β1 -->
<g id="node2" class="node">
<title>β1</title>
<ellipse fill="white" stroke="black" cx="315" cy="-271" rx="27" ry="18"/>
<text xml:space="preserve" text-anchor="middle" x="315" y="-265.95" font-family="Times New Roman,serif" font-size="14.00">β1</text>
</g>
<!-- β1&#45;&gt;μ -->
<g id="edge5" class="edge">
<title>β1&#45;&gt;μ</title>
<path fill="none" stroke="black" d="M309.93,-253.03C304.31,-235.34 294.39,-207.1 282,-184.5 276.52,-174.49 269.38,-164.23 262.7,-155.43"/>
<polygon fill="black" stroke="black" points="265.6,-153.45 256.68,-147.73 260.09,-157.76 265.6,-153.45"/>
</g>
<!-- β2 -->
<g id="node3" class="node">
<title>β2</title>
<ellipse fill="white" stroke="black" cx="387" cy="-271" rx="27" ry="18"/>
<text xml:space="preserve" text-anchor="middle" x="387" y="-265.95" font-family="Times New Roman,serif" font-size="14.00">β2</text>
</g>
<!-- β2&#45;&gt;μ -->
<g id="edge6" class="edge">
<title>β2&#45;&gt;μ</title>
<path fill="none" stroke="black" d="M383.58,-252.94C379.04,-234.12 369.35,-203.94 351,-184.5 349.53,-182.95 305.88,-161.76 274.53,-146.65"/>
<polygon fill="black" stroke="black" points="276.34,-143.63 265.81,-142.45 273.3,-149.94 276.34,-143.63"/>
</g>
<!-- β3 -->
<g id="node4" class="node">
<title>β3</title>
<ellipse fill="white" stroke="black" cx="459" cy="-271" rx="27" ry="18"/>
<text xml:space="preserve" text-anchor="middle" x="459" y="-265.95" font-family="Times New Roman,serif" font-size="14.00">β3</text>
</g>
<!-- β3&#45;&gt;μ -->
<g id="edge7" class="edge">
<title>β3&#45;&gt;μ</title>
<path fill="none" stroke="black" d="M456.45,-252.88C452.63,-233.43 443.54,-202.11 423,-184.5 372.91,-141.57 341.13,-170.69 279,-148.5 277.45,-147.95 275.89,-147.35 274.31,-146.72"/>
<polygon fill="black" stroke="black" points="275.98,-143.64 265.42,-142.88 273.2,-150.06 275.98,-143.64"/>
</g>
<!-- σ -->
<g id="node5" class="node">
<title>σ</title>
<ellipse fill="white" stroke="black" cx="315" cy="-130.5" rx="27" ry="18"/>
<text xml:space="preserve" text-anchor="middle" x="315" y="-125.45" font-family="Times New Roman,serif" font-size="14.00">σ</text>
</g>
<!-- Y -->
<g id="node10" class="node">
<title>Y</title>
<ellipse fill="grey" stroke="black" cx="243" cy="-58.5" rx="27" ry="18"/>
<text xml:space="preserve" text-anchor="middle" x="243" y="-53.45" font-family="Times New Roman,serif" font-size="14.00">Y</text>
</g>
<!-- σ&#45;&gt;Y -->
<g id="edge9" class="edge">
<title>σ&#45;&gt;Y</title>
<path fill="none" stroke="black" d="M300.08,-115C290.23,-105.42 277.14,-92.69 265.97,-81.84"/>
<polygon fill="black" stroke="black" points="268.59,-79.5 258.98,-75.04 263.71,-84.52 268.59,-79.5"/>
</g>
<!-- X1 -->
<g id="node6" class="node">
<title>X1</title>
<ellipse fill="white" stroke="black" stroke-dasharray="5,2" cx="99" cy="-271" rx="27" ry="18"/>
<text xml:space="preserve" text-anchor="middle" x="99" y="-265.95" font-family="Times New Roman,serif" font-size="14.00">X1</text>
</g>
<!-- X1&#45;&gt;μ -->
<g id="edge1" class="edge">
<title>X1&#45;&gt;μ</title>
<path fill="none" stroke="black" d="M102.42,-252.94C106.96,-234.12 116.65,-203.94 135,-184.5 154.59,-163.75 184.04,-150.05 207.24,-141.79"/>
<polygon fill="black" stroke="black" points="208.25,-145.14 216.62,-138.64 206.02,-138.5 208.25,-145.14"/>
</g>
<!-- X2 -->
<g id="node7" class="node">
<title>X2</title>
<ellipse fill="white" stroke="black" stroke-dasharray="5,2" cx="171" cy="-271" rx="27" ry="18"/>
<text xml:space="preserve" text-anchor="middle" x="171" y="-265.95" font-family="Times New Roman,serif" font-size="14.00">X2</text>
</g>
<!-- X2&#45;&gt;μ -->
<g id="edge2" class="edge">
<title>X2&#45;&gt;μ</title>
<path fill="none" stroke="black" d="M176.96,-253.16C183.44,-235.58 194.55,-207.43 207,-184.5 212.25,-174.84 218.81,-164.74 224.88,-155.98"/>
<polygon fill="black" stroke="black" points="227.62,-158.17 230.57,-147.99 221.92,-154.11 227.62,-158.17"/>
</g>
<!-- X3 -->
<g id="node8" class="node">
<title>X3</title>
<ellipse fill="white" stroke="black" stroke-dasharray="5,2" cx="243" cy="-271" rx="27" ry="18"/>
<text xml:space="preserve" text-anchor="middle" x="243" y="-265.95" font-family="Times New Roman,serif" font-size="14.00">X3</text>
</g>
<!-- X3&#45;&gt;μ -->
<g id="edge3" class="edge">
<title>X3&#45;&gt;μ</title>
<path fill="none" stroke="black" d="M243,-252.74C243,-229.62 243,-188.28 243,-160.38"/>
<polygon fill="black" stroke="black" points="246.5,-160.49 243,-150.49 239.5,-160.49 246.5,-160.49"/>
</g>
<!-- μ&#45;&gt;Y -->
<g id="edge8" class="edge">
<title>μ&#45;&gt;Y</title>
<path fill="none" stroke="black" d="M243,-112.2C243,-104.91 243,-96.23 243,-88.04"/>
<polygon fill="black" stroke="black" points="246.5,-88.12 243,-78.12 239.5,-88.12 246.5,-88.12"/>
</g>
<!-- distribution_description_node -->
<g id="node11" class="node">
<title>distribution_description_node</title>
<text xml:space="preserve" text-anchor="start" x="512.12" y="-340.2" font-family="Times New Roman,serif" font-size="14.00">X1 ~ Deterministic</text>
<text xml:space="preserve" text-anchor="start" x="512.12" y="-323.7" font-family="Times New Roman,serif" font-size="14.00">X2 ~ Deterministic</text>
<text xml:space="preserve" text-anchor="start" x="512.12" y="-307.2" font-family="Times New Roman,serif" font-size="14.00">X3 ~ Deterministic</text>
<text xml:space="preserve" text-anchor="start" x="512.12" y="-290.7" font-family="Times New Roman,serif" font-size="14.00">β0 ~ Normal</text>
<text xml:space="preserve" text-anchor="start" x="512.12" y="-274.2" font-family="Times New Roman,serif" font-size="14.00">β1 ~ Normal</text>
<text xml:space="preserve" text-anchor="start" x="512.12" y="-257.7" font-family="Times New Roman,serif" font-size="14.00">β2 ~ Normal</text>
<text xml:space="preserve" text-anchor="start" x="512.12" y="-241.2" font-family="Times New Roman,serif" font-size="14.00">β3 ~ Normal</text>
<text xml:space="preserve" text-anchor="start" x="512.12" y="-224.7" font-family="Times New Roman,serif" font-size="14.00">μ ~ Deterministic</text>
<text xml:space="preserve" text-anchor="start" x="512.12" y="-208.2" font-family="Times New Roman,serif" font-size="14.00">σ ~ HalfNormal</text>
<text xml:space="preserve" text-anchor="start" x="512.12" y="-191.7" font-family="Times New Roman,serif" font-size="14.00">Y ~ Normal</text>
</g>
</g>
</svg>
