<?xml version="1.0" encoding="UTF-8" standalone="no"?>
<!DOCTYPE svg PUBLIC "-//W3C//DTD SVG 1.1//EN"
 "http://www.w3.org/Graphics/SVG/1.1/DTD/svg11.dtd">
<!-- Generated by graphviz version 13.1.2 (0)
 -->
<!-- Pages: 1 -->
<svg width="562pt" height="297pt"
 viewBox="0.00 0.00 562.00 297.00" xmlns="http://www.w3.org/2000/svg" xmlns:xlink="http://www.w3.org/1999/xlink">
<g id="graph0" class="graph" transform="scale(1 1) rotate(0) translate(4 292.5)">
<polygon fill="white" stroke="none" points="-4,4 -4,-292.5 557.88,-292.5 557.88,4 -4,4"/>
<g id="clust1" class="cluster">
<title>cluster_N</title>
<polygon fill="none" stroke="black" points="208,-44 208,-120.5 422,-120.5 422,-44 208,-44"/>
<text xml:space="preserve" text-anchor="middle" x="409.12" y="-51.2" font-family="Times New Roman,serif" font-size="14.00">N</text>
</g>
<!-- β0 -->
<g id="node1" class="node">
<title>β0</title>
<ellipse fill="white" stroke="black" cx="27" cy="-94.5" rx="27" ry="18"/>
<text xml:space="preserve" text-anchor="middle" x="27" y="-89.45" font-family="Times New Roman,serif" font-size="14.00">β0</text>
</g>
<!-- μ -->
<g id="node4" class="node">
<title>μ</title>
<ellipse fill="white" stroke="black" stroke-dasharray="5,2" cx="207" cy="-18" rx="27" ry="18"/>
<text xml:space="preserve" text-anchor="middle" x="207" y="-12.95" font-family="Times New Roman,serif" font-size="14.00">μ</text>
</g>
<!-- β0&#45;&gt;μ -->
<g id="edge3" class="edge">
<title>β0&#45;&gt;μ</title>
<path fill="none" stroke="black" d="M34.7,-77.06C40.79,-65.93 50.37,-51.86 63,-44 80.25,-33.26 132.28,-26.17 168.82,-22.37"/>
<polygon fill="black" stroke="black" points="168.97,-25.87 178.57,-21.4 168.27,-18.91 168.97,-25.87"/>
</g>
<!-- β1 -->
<g id="node2" class="node">
<title>β1</title>
<ellipse fill="white" stroke="black" cx="99" cy="-94.5" rx="27" ry="18"/>
<text xml:space="preserve" text-anchor="middle" x="99" y="-89.45" font-family="Times New Roman,serif" font-size="14.00">β1</text>
</g>
<!-- β1&#45;&gt;μ -->
<g id="edge4" class="edge">
<title>β1&#45;&gt;μ</title>
<path fill="none" stroke="black" d="M107.39,-77.21C113.68,-66.44 123.22,-52.73 135,-44 145.42,-36.28 158.41,-30.8 170.48,-26.99"/>
<polygon fill="black" stroke="black" points="171.09,-30.45 179.75,-24.35 169.17,-23.72 171.09,-30.45"/>
</g>
<!-- β2 -->
<g id="node3" class="node">
<title>β2</title>
<ellipse fill="white" stroke="black" cx="171" cy="-94.5" rx="27" ry="18"/>
<text xml:space="preserve" text-anchor="middle" x="171" y="-89.45" font-family="Times New Roman,serif" font-size="14.00">β2</text>
</g>
<!-- β2&#45;&gt;μ -->
<g id="edge5" class="edge">
<title>β2&#45;&gt;μ</title>
<path fill="none" stroke="black" d="M178.99,-76.97C183.42,-67.8 189.03,-56.19 194.07,-45.77"/>
<polygon fill="black" stroke="black" points="197.17,-47.38 198.37,-36.85 190.87,-44.33 197.17,-47.38"/>
</g>
<!-- Y -->
<g id="node8" class="node">
<title>Y</title>
<ellipse fill="grey" stroke="black" cx="387" cy="-94.5" rx="27" ry="18"/>
<text xml:space="preserve" text-anchor="middle" x="387" y="-89.45" font-family="Times New Roman,serif" font-size="14.00">Y</text>
</g>
<!-- μ&#45;&gt;Y -->
<g id="edge6" class="edge">
<title>μ&#45;&gt;Y</title>
<path fill="none" stroke="black" d="M233.92,-21.25C270.05,-24.68 331.88,-32.1 351,-44 360.18,-49.71 367.74,-58.7 373.53,-67.46"/>
<polygon fill="black" stroke="black" points="370.37,-69 378.52,-75.77 376.37,-65.39 370.37,-69"/>
</g>
<!-- σ -->
<g id="node5" class="node">
<title>σ</title>
<ellipse fill="white" stroke="black" cx="387" cy="-218.5" rx="27" ry="18"/>
<text xml:space="preserve" text-anchor="middle" x="387" y="-213.45" font-family="Times New Roman,serif" font-size="14.00">σ</text>
</g>
<!-- σ&#45;&gt;Y -->
<g id="edge7" class="edge">
<title>σ&#45;&gt;Y</title>
<path fill="none" stroke="black" d="M387,-200.02C387,-180.27 387,-147.82 387,-124.31"/>
<polygon fill="black" stroke="black" points="390.5,-124.46 387,-114.46 383.5,-124.46 390.5,-124.46"/>
</g>
<!-- X1 -->
<g id="node6" class="node">
<title>X1</title>
<ellipse fill="white" stroke="black" stroke-dasharray="5,2" cx="243" cy="-94.5" rx="27" ry="18"/>
<text xml:space="preserve" text-anchor="middle" x="243" y="-89.45" font-family="Times New Roman,serif" font-size="14.00">X1</text>
</g>
<!-- X1&#45;&gt;μ -->
<g id="edge1" class="edge">
<title>X1&#45;&gt;μ</title>
<path fill="none" stroke="black" d="M235.01,-76.97C230.58,-67.8 224.97,-56.19 219.93,-45.77"/>
<polygon fill="black" stroke="black" points="223.13,-44.33 215.63,-36.85 216.83,-47.38 223.13,-44.33"/>
</g>
<!-- X2 -->
<g id="node7" class="node">
<title>X2</title>
<ellipse fill="white" stroke="black" stroke-dasharray="5,2" cx="315" cy="-94.5" rx="27" ry="18"/>
<text xml:space="preserve" text-anchor="middle" x="315" y="-89.45" font-family="Times New Roman,serif" font-size="14.00">X2</text>
</g>
<!-- X2&#45;&gt;μ -->
<g id="edge2" class="edge">
<title>X2&#45;&gt;μ</title>
<path fill="none" stroke="black" d="M306.61,-77.21C300.32,-66.44 290.78,-52.73 279,-44 268.58,-36.28 255.59,-30.8 243.52,-26.99"/>
<polygon fill="black" stroke="black" points="244.83,-23.72 234.25,-24.35 242.91,-30.45 244.83,-23.72"/>
</g>
<!-- distribution_description_node -->
<g id="node9" class="node">
<title>distribution_description_node</title>
<text xml:space="preserve" text-anchor="start" x="440.12" y="-271.2" font-family="Times New Roman,serif" font-size="14.00">X1 ~ Deterministic</text>
<text xml:space="preserve" text-anchor="start" x="440.12" y="-254.7" font-family="Times New Roman,serif" font-size="14.00">X2 ~ Deterministic</text>
<text xml:space="preserve" text-anchor="start" x="440.12" y="-238.2" font-family="Times New Roman,serif" font-size="14.00">β0 ~ Normal</text>
<text xml:space="preserve" text-anchor="start" x="440.12" y="-221.7" font-family="Times New Roman,serif" font-size="14.00">β1 ~ Normal</text>
<text xml:space="preserve" text-anchor="start" x="440.12" y="-205.2" font-family="Times New Roman,serif" font-size="14.00">β2 ~ Normal</text>
<text xml:space="preserve" text-anchor="start" x="440.12" y="-188.7" font-family="Times New Roman,serif" font-size="14.00">μ ~ Deterministic</text>
<text xml:space="preserve" text-anchor="start" x="440.12" y="-172.2" font-family="Times New Roman,serif" font-size="14.00">σ ~ HalfNormal</text>
<text xml:space="preserve" text-anchor="start" x="440.12" y="-155.7" font-family="Times New Roman,serif" font-size="14.00">Y ~ Normal</text>
</g>
</g>
</svg>
