<?xml version="1.0" encoding="UTF-8" standalone="no"?>
<!DOCTYPE svg PUBLIC "-//W3C//DTD SVG 1.1//EN"
 "http://www.w3.org/Graphics/SVG/1.1/DTD/svg11.dtd">
<!-- Generated by graphviz version 13.1.2 (0)
 -->
<!-- Pages: 1 -->
<svg width="340pt" height="300pt"
 viewBox="0.00 0.00 340.00 300.00" xmlns="http://www.w3.org/2000/svg" xmlns:xlink="http://www.w3.org/1999/xlink">
<g id="graph0" class="graph" transform="scale(1 1) rotate(0) translate(4 295.5)">
<polygon fill="white" stroke="none" points="-4,4 -4,-295.5 335.5,-295.5 335.5,4 -4,4"/>
<g id="clust1" class="cluster">
<title>cluster_N</title>
<polygon fill="none" stroke="black" points="64,-8 64,-264 134,-264 134,-8 64,-8"/>
<text xml:space="preserve" text-anchor="middle" x="121.12" y="-15.2" font-family="Times New Roman,serif" font-size="14.00">N</text>
</g>
<!-- β0 -->
<g id="node1" class="node">
<title>β0</title>
<ellipse fill="white" stroke="black" cx="27" cy="-238" rx="27" ry="18"/>
<text xml:space="preserve" text-anchor="middle" x="27" y="-232.95" font-family="Times New Roman,serif" font-size="14.00">β0</text>
</g>
<!-- μ -->
<g id="node5" class="node">
<title>μ</title>
<ellipse fill="white" stroke="black" stroke-dasharray="5,2" cx="99" cy="-130.5" rx="27" ry="18"/>
<text xml:space="preserve" text-anchor="middle" x="99" y="-125.45" font-family="Times New Roman,serif" font-size="14.00">μ</text>
</g>
<!-- β0&#45;&gt;μ -->
<g id="edge2" class="edge">
<title>β0&#45;&gt;μ</title>
<path fill="none" stroke="black" d="M36.81,-220.72C43.22,-210.25 51.88,-196.42 60,-184.5 66.42,-175.07 73.77,-164.93 80.34,-156.07"/>
<polygon fill="black" stroke="black" points="82.99,-158.37 86.18,-148.27 77.39,-154.17 82.99,-158.37"/>
</g>
<!-- β1 -->
<g id="node2" class="node">
<title>β1</title>
<ellipse fill="white" stroke="black" cx="171" cy="-238" rx="27" ry="18"/>
<text xml:space="preserve" text-anchor="middle" x="171" y="-232.95" font-family="Times New Roman,serif" font-size="14.00">β1</text>
</g>
<!-- β1&#45;&gt;μ -->
<g id="edge3" class="edge">
<title>β1&#45;&gt;μ</title>
<path fill="none" stroke="black" d="M161.19,-220.72C154.78,-210.25 146.12,-196.42 138,-184.5 131.58,-175.07 124.23,-164.93 117.66,-156.07"/>
<polygon fill="black" stroke="black" points="120.61,-154.17 111.82,-148.27 115.01,-158.37 120.61,-154.17"/>
</g>
<!-- σ -->
<g id="node3" class="node">
<title>σ</title>
<ellipse fill="white" stroke="black" cx="171" cy="-130.5" rx="27" ry="18"/>
<text xml:space="preserve" text-anchor="middle" x="171" y="-125.45" font-family="Times New Roman,serif" font-size="14.00">σ</text>
</g>
<!-- Y -->
<g id="node6" class="node">
<title>Y</title>
<ellipse fill="grey" stroke="black" cx="99" cy="-58.5" rx="27" ry="18"/>
<text xml:space="preserve" text-anchor="middle" x="99" y="-53.45" font-family="Times New Roman,serif" font-size="14.00">Y</text>
</g>
<!-- σ&#45;&gt;Y -->
<g id="edge5" class="edge">
<title>σ&#45;&gt;Y</title>
<path fill="none" stroke="black" d="M156.08,-115C146.23,-105.42 133.14,-92.69 121.97,-81.84"/>
<polygon fill="black" stroke="black" points="124.59,-79.5 114.98,-75.04 119.71,-84.52 124.59,-79.5"/>
</g>
<!-- X -->
<g id="node4" class="node">
<title>X</title>
<ellipse fill="white" stroke="black" stroke-dasharray="5,2" cx="99" cy="-238" rx="27" ry="18"/>
<text xml:space="preserve" text-anchor="middle" x="99" y="-232.95" font-family="Times New Roman,serif" font-size="14.00">X</text>
</g>
<!-- X&#45;&gt;μ -->
<g id="edge1" class="edge">
<title>X&#45;&gt;μ</title>
<path fill="none" stroke="black" d="M99,-219.58C99,-203.47 99,-179.22 99,-160.24"/>
<polygon fill="black" stroke="black" points="102.5,-160.46 99,-150.46 95.5,-160.46 102.5,-160.46"/>
</g>
<!-- μ&#45;&gt;Y -->
<g id="edge4" class="edge">
<title>μ&#45;&gt;Y</title>
<path fill="none" stroke="black" d="M99,-112.2C99,-104.91 99,-96.23 99,-88.04"/>
<polygon fill="black" stroke="black" points="102.5,-88.12 99,-78.12 95.5,-88.12 102.5,-88.12"/>
</g>
<!-- distribution_description_node -->
<g id="node7" class="node">
<title>distribution_description_node</title>
<text xml:space="preserve" text-anchor="start" x="224.5" y="-274.2" font-family="Times New Roman,serif" font-size="14.00">X ~ Deterministic</text>
<text xml:space="preserve" text-anchor="start" x="224.5" y="-257.7" font-family="Times New Roman,serif" font-size="14.00">β0 ~ Normal</text>
<text xml:space="preserve" text-anchor="start" x="224.5" y="-241.2" font-family="Times New Roman,serif" font-size="14.00">β1 ~ Normal</text>
<text xml:space="preserve" text-anchor="start" x="224.5" y="-224.7" font-family="Times New Roman,serif" font-size="14.00">μ ~ Deterministic</text>
<text xml:space="preserve" text-anchor="start" x="224.5" y="-208.2" font-family="Times New Roman,serif" font-size="14.00">σ ~ HalfNormal</text>
<text xml:space="preserve" text-anchor="start" x="224.5" y="-191.7" font-family="Times New Roman,serif" font-size="14.00">Y ~ Normal</text>
</g>
</g>
</svg>
