<?xml version="1.0" encoding="UTF-8" standalone="no"?>
<!DOCTYPE svg PUBLIC "-//W3C//DTD SVG 1.1//EN"
 "http://www.w3.org/Graphics/SVG/1.1/DTD/svg11.dtd">
<!-- Generated by graphviz version 13.1.2 (0)
 -->
<!-- Pages: 1 -->
<svg width="494pt" height="333pt"
 viewBox="0.00 0.00 494.00 333.00" xmlns="http://www.w3.org/2000/svg" xmlns:xlink="http://www.w3.org/1999/xlink">
<g id="graph0" class="graph" transform="scale(1 1) rotate(0) translate(4 328.5)">
<polygon fill="white" stroke="none" points="-4,4 -4,-328.5 490.12,-328.5 490.12,4 -4,4"/>
<g id="clust1" class="cluster">
<title>cluster_N</title>
<polygon fill="none" stroke="black" points="64,-8 64,-280.5 206,-280.5 206,-8 64,-8"/>
<text xml:space="preserve" text-anchor="middle" x="193.12" y="-15.2" font-family="Times New Roman,serif" font-size="14.00">N</text>
</g>
<!-- β0 -->
<g id="node1" class="node">
<title>β0</title>
<ellipse fill="white" stroke="black" cx="27" cy="-254.5" rx="27" ry="18"/>
<text xml:space="preserve" text-anchor="middle" x="27" y="-249.45" font-family="Times New Roman,serif" font-size="14.00">β0</text>
</g>
<!-- μ -->
<g id="node6" class="node">
<title>μ</title>
<ellipse fill="white" stroke="black" stroke-dasharray="5,2" cx="171" cy="-130.5" rx="27" ry="18"/>
<text xml:space="preserve" text-anchor="middle" x="171" y="-125.45" font-family="Times New Roman,serif" font-size="14.00">μ</text>
</g>
<!-- β0&#45;&gt;μ -->
<g id="edge3" class="edge">
<title>β0&#45;&gt;μ</title>
<path fill="none" stroke="black" d="M31.56,-236.55C36.42,-221.27 45.44,-199.05 60,-184.5 80.86,-163.65 111.53,-149.87 135.34,-141.6"/>
<polygon fill="black" stroke="black" points="136.23,-144.99 144.64,-138.55 134.04,-138.34 136.23,-144.99"/>
</g>
<!-- β1 -->
<g id="node2" class="node">
<title>β1</title>
<ellipse fill="white" stroke="black" cx="243" cy="-254.5" rx="27" ry="18"/>
<text xml:space="preserve" text-anchor="middle" x="243" y="-249.45" font-family="Times New Roman,serif" font-size="14.00">β1</text>
</g>
<!-- β1&#45;&gt;μ -->
<g id="edge4" class="edge">
<title>β1&#45;&gt;μ</title>
<path fill="none" stroke="black" d="M236.1,-236.88C229.94,-222.61 220.31,-201.7 210,-184.5 204.13,-174.72 196.91,-164.5 190.28,-155.68"/>
<polygon fill="black" stroke="black" points="193.2,-153.73 184.33,-147.94 187.65,-158 193.2,-153.73"/>
</g>
<!-- β2 -->
<g id="node3" class="node">
<title>β2</title>
<ellipse fill="white" stroke="black" cx="315" cy="-254.5" rx="27" ry="18"/>
<text xml:space="preserve" text-anchor="middle" x="315" y="-249.45" font-family="Times New Roman,serif" font-size="14.00">β2</text>
</g>
<!-- β2&#45;&gt;μ -->
<g id="edge5" class="edge">
<title>β2&#45;&gt;μ</title>
<path fill="none" stroke="black" d="M309.61,-236.58C304.03,-221.33 293.99,-199.13 279,-184.5 258.57,-164.57 229.18,-150.82 206.22,-142.32"/>
<polygon fill="black" stroke="black" points="207.55,-139.08 196.96,-139.07 205.23,-145.69 207.55,-139.08"/>
</g>
<!-- X1 -->
<g id="node4" class="node">
<title>X1</title>
<ellipse fill="white" stroke="black" stroke-dasharray="5,2" cx="99" cy="-254.5" rx="27" ry="18"/>
<text xml:space="preserve" text-anchor="middle" x="99" y="-249.45" font-family="Times New Roman,serif" font-size="14.00">X1</text>
</g>
<!-- X1&#45;&gt;μ -->
<g id="edge1" class="edge">
<title>X1&#45;&gt;μ</title>
<path fill="none" stroke="black" d="M106.92,-237.04C113.89,-222.87 124.53,-202.01 135,-184.5 140.64,-175.07 147.29,-165.02 153.33,-156.24"/>
<polygon fill="black" stroke="black" points="156.08,-158.4 158.94,-148.2 150.34,-154.4 156.08,-158.4"/>
</g>
<!-- X2 -->
<g id="node5" class="node">
<title>X2</title>
<ellipse fill="white" stroke="black" stroke-dasharray="5,2" cx="171" cy="-254.5" rx="27" ry="18"/>
<text xml:space="preserve" text-anchor="middle" x="171" y="-249.45" font-family="Times New Roman,serif" font-size="14.00">X2</text>
</g>
<!-- X2&#45;&gt;μ -->
<g id="edge2" class="edge">
<title>X2&#45;&gt;μ</title>
<path fill="none" stroke="black" d="M171,-236.02C171,-216.27 171,-183.82 171,-160.31"/>
<polygon fill="black" stroke="black" points="174.5,-160.46 171,-150.46 167.5,-160.46 174.5,-160.46"/>
</g>
<!-- p -->
<g id="node7" class="node">
<title>p</title>
<ellipse fill="white" stroke="black" stroke-dasharray="5,2" cx="99" cy="-58.5" rx="27" ry="18"/>
<text xml:space="preserve" text-anchor="middle" x="99" y="-53.45" font-family="Times New Roman,serif" font-size="14.00">p</text>
</g>
<!-- μ&#45;&gt;p -->
<g id="edge6" class="edge">
<title>μ&#45;&gt;p</title>
<path fill="none" stroke="black" d="M156.08,-115C146.23,-105.42 133.14,-92.69 121.97,-81.84"/>
<polygon fill="black" stroke="black" points="124.59,-79.5 114.98,-75.04 119.71,-84.52 124.59,-79.5"/>
</g>
<!-- Y -->
<g id="node8" class="node">
<title>Y</title>
<ellipse fill="grey" stroke="black" cx="171" cy="-58.5" rx="27" ry="18"/>
<text xml:space="preserve" text-anchor="middle" x="171" y="-53.45" font-family="Times New Roman,serif" font-size="14.00">Y</text>
</g>
<!-- μ&#45;&gt;Y -->
<g id="edge7" class="edge">
<title>μ&#45;&gt;Y</title>
<path fill="none" stroke="black" d="M171,-112.2C171,-104.91 171,-96.23 171,-88.04"/>
<polygon fill="black" stroke="black" points="174.5,-88.12 171,-78.12 167.5,-88.12 174.5,-88.12"/>
</g>
<!-- distribution_description_node -->
<g id="node9" class="node">
<title>distribution_description_node</title>
<text xml:space="preserve" text-anchor="start" x="367.88" y="-307.2" font-family="Times New Roman,serif" font-size="14.00">X1 ~ Deterministic</text>
<text xml:space="preserve" text-anchor="start" x="367.88" y="-290.7" font-family="Times New Roman,serif" font-size="14.00">X2 ~ Deterministic</text>
<text xml:space="preserve" text-anchor="start" x="367.88" y="-274.2" font-family="Times New Roman,serif" font-size="14.00">β0 ~ Normal</text>
<text xml:space="preserve" text-anchor="start" x="367.88" y="-257.7" font-family="Times New Roman,serif" font-size="14.00">β1 ~ Normal</text>
<text xml:space="preserve" text-anchor="start" x="367.88" y="-241.2" font-family="Times New Roman,serif" font-size="14.00">β2 ~ Normal</text>
<text xml:space="preserve" text-anchor="start" x="367.88" y="-224.7" font-family="Times New Roman,serif" font-size="14.00">μ ~ Deterministic</text>
<text xml:space="preserve" text-anchor="start" x="367.88" y="-208.2" font-family="Times New Roman,serif" font-size="14.00">p ~ Deterministic</text>
<text xml:space="preserve" text-anchor="start" x="367.88" y="-191.7" font-family="Times New Roman,serif" font-size="14.00">Y ~ BinomialLogits</text>
</g>
</g>
</svg>
