<?xml version="1.0" encoding="UTF-8" standalone="no"?>
<!DOCTYPE svg PUBLIC "-//W3C//DTD SVG 1.1//EN"
 "http://www.w3.org/Graphics/SVG/1.1/DTD/svg11.dtd">
<!-- Generated by graphviz version 13.1.2 (0)
 -->
<!-- Pages: 1 -->
<svg width="490pt" height="405pt"
 viewBox="0.00 0.00 490.00 405.00" xmlns="http://www.w3.org/2000/svg" xmlns:xlink="http://www.w3.org/1999/xlink">
<g id="graph0" class="graph" transform="scale(1 1) rotate(0) translate(4 400.5)">
<polygon fill="white" stroke="none" points="-4,4 -4,-400.5 485.88,-400.5 485.88,4 -4,4"/>
<g id="clust1" class="cluster">
<title>cluster_N</title>
<polygon fill="none" stroke="black" points="64,-8 64,-352.5 206,-352.5 206,-8 64,-8"/>
<text xml:space="preserve" text-anchor="middle" x="193.12" y="-15.2" font-family="Times New Roman,serif" font-size="14.00">N</text>
</g>
<!-- β0 -->
<g id="node1" class="node">
<title>β0</title>
<ellipse fill="white" stroke="black" cx="27" cy="-326.5" rx="27" ry="18"/>
<text xml:space="preserve" text-anchor="middle" x="27" y="-321.45" font-family="Times New Roman,serif" font-size="14.00">β0</text>
</g>
<!-- μ -->
<g id="node6" class="node">
<title>μ</title>
<ellipse fill="white" stroke="black" stroke-dasharray="5,2" cx="171" cy="-202.5" rx="27" ry="18"/>
<text xml:space="preserve" text-anchor="middle" x="171" y="-197.45" font-family="Times New Roman,serif" font-size="14.00">μ</text>
</g>
<!-- β0&#45;&gt;μ -->
<g id="edge3" class="edge">
<title>β0&#45;&gt;μ</title>
<path fill="none" stroke="black" d="M31.56,-308.55C36.42,-293.27 45.44,-271.05 60,-256.5 80.86,-235.65 111.53,-221.87 135.34,-213.6"/>
<polygon fill="black" stroke="black" points="136.23,-216.99 144.64,-210.55 134.04,-210.34 136.23,-216.99"/>
</g>
<!-- β1 -->
<g id="node2" class="node">
<title>β1</title>
<ellipse fill="white" stroke="black" cx="243" cy="-326.5" rx="27" ry="18"/>
<text xml:space="preserve" text-anchor="middle" x="243" y="-321.45" font-family="Times New Roman,serif" font-size="14.00">β1</text>
</g>
<!-- β1&#45;&gt;μ -->
<g id="edge4" class="edge">
<title>β1&#45;&gt;μ</title>
<path fill="none" stroke="black" d="M236.1,-308.88C229.94,-294.61 220.31,-273.7 210,-256.5 204.13,-246.72 196.91,-236.5 190.28,-227.68"/>
<polygon fill="black" stroke="black" points="193.2,-225.73 184.33,-219.94 187.65,-230 193.2,-225.73"/>
</g>
<!-- β2 -->
<g id="node3" class="node">
<title>β2</title>
<ellipse fill="white" stroke="black" cx="315" cy="-326.5" rx="27" ry="18"/>
<text xml:space="preserve" text-anchor="middle" x="315" y="-321.45" font-family="Times New Roman,serif" font-size="14.00">β2</text>
</g>
<!-- β2&#45;&gt;μ -->
<g id="edge5" class="edge">
<title>β2&#45;&gt;μ</title>
<path fill="none" stroke="black" d="M309.61,-308.58C304.03,-293.33 293.99,-271.13 279,-256.5 258.57,-236.57 229.18,-222.82 206.22,-214.32"/>
<polygon fill="black" stroke="black" points="207.55,-211.08 196.96,-211.07 205.23,-217.69 207.55,-211.08"/>
</g>
<!-- X1 -->
<g id="node4" class="node">
<title>X1</title>
<ellipse fill="white" stroke="black" stroke-dasharray="5,2" cx="99" cy="-326.5" rx="27" ry="18"/>
<text xml:space="preserve" text-anchor="middle" x="99" y="-321.45" font-family="Times New Roman,serif" font-size="14.00">X1</text>
</g>
<!-- X1&#45;&gt;μ -->
<g id="edge1" class="edge">
<title>X1&#45;&gt;μ</title>
<path fill="none" stroke="black" d="M106.92,-309.04C113.89,-294.87 124.53,-274.01 135,-256.5 140.64,-247.07 147.29,-237.02 153.33,-228.24"/>
<polygon fill="black" stroke="black" points="156.08,-230.4 158.94,-220.2 150.34,-226.4 156.08,-230.4"/>
</g>
<!-- X2 -->
<g id="node5" class="node">
<title>X2</title>
<ellipse fill="white" stroke="black" stroke-dasharray="5,2" cx="171" cy="-326.5" rx="27" ry="18"/>
<text xml:space="preserve" text-anchor="middle" x="171" y="-321.45" font-family="Times New Roman,serif" font-size="14.00">X2</text>
</g>
<!-- X2&#45;&gt;μ -->
<g id="edge2" class="edge">
<title>X2&#45;&gt;μ</title>
<path fill="none" stroke="black" d="M171,-308.02C171,-288.27 171,-255.82 171,-232.31"/>
<polygon fill="black" stroke="black" points="174.5,-232.46 171,-222.46 167.5,-232.46 174.5,-232.46"/>
</g>
<!-- λ -->
<g id="node7" class="node">
<title>λ</title>
<ellipse fill="white" stroke="black" stroke-dasharray="5,2" cx="171" cy="-130.5" rx="27" ry="18"/>
<text xml:space="preserve" text-anchor="middle" x="171" y="-125.45" font-family="Times New Roman,serif" font-size="14.00">λ</text>
</g>
<!-- μ&#45;&gt;λ -->
<g id="edge6" class="edge">
<title>μ&#45;&gt;λ</title>
<path fill="none" stroke="black" d="M171,-184.2C171,-176.91 171,-168.23 171,-160.04"/>
<polygon fill="black" stroke="black" points="174.5,-160.12 171,-150.12 167.5,-160.12 174.5,-160.12"/>
</g>
<!-- Y -->
<g id="node8" class="node">
<title>Y</title>
<ellipse fill="grey" stroke="black" cx="171" cy="-58.5" rx="27" ry="18"/>
<text xml:space="preserve" text-anchor="middle" x="171" y="-53.45" font-family="Times New Roman,serif" font-size="14.00">Y</text>
</g>
<!-- λ&#45;&gt;Y -->
<g id="edge7" class="edge">
<title>λ&#45;&gt;Y</title>
<path fill="none" stroke="black" d="M171,-112.2C171,-104.91 171,-96.23 171,-88.04"/>
<polygon fill="black" stroke="black" points="174.5,-88.12 171,-78.12 167.5,-88.12 174.5,-88.12"/>
</g>
<!-- distribution_description_node -->
<g id="node9" class="node">
<title>distribution_description_node</title>
<text xml:space="preserve" text-anchor="start" x="368.12" y="-379.2" font-family="Times New Roman,serif" font-size="14.00">X1 ~ Deterministic</text>
<text xml:space="preserve" text-anchor="start" x="368.12" y="-362.7" font-family="Times New Roman,serif" font-size="14.00">X2 ~ Deterministic</text>
<text xml:space="preserve" text-anchor="start" x="368.12" y="-346.2" font-family="Times New Roman,serif" font-size="14.00">β0 ~ Normal</text>
<text xml:space="preserve" text-anchor="start" x="368.12" y="-329.7" font-family="Times New Roman,serif" font-size="14.00">β1 ~ Normal</text>
<text xml:space="preserve" text-anchor="start" x="368.12" y="-313.2" font-family="Times New Roman,serif" font-size="14.00">β2 ~ Normal</text>
<text xml:space="preserve" text-anchor="start" x="368.12" y="-296.7" font-family="Times New Roman,serif" font-size="14.00">μ ~ Deterministic</text>
<text xml:space="preserve" text-anchor="start" x="368.12" y="-280.2" font-family="Times New Roman,serif" font-size="14.00">λ ~ Deterministic</text>
<text xml:space="preserve" text-anchor="start" x="368.12" y="-263.7" font-family="Times New Roman,serif" font-size="14.00">Y ~ Poisson</text>
</g>
</g>
</svg>
